HIERARCHY
ROOT Hips
{
	OFFSET 0.000000 0.000000 0.000000
	CHANNELS 6 Xposition Yposition Zposition Zrotation Yrotation Xrotation 
	JOINT LHipJoint
	{
		OFFSET 0.000000 0.000000 0.000000
		CHANNELS 3 Zrotation Yrotation Xrotation
		JOINT LeftUpLeg
		{
			OFFSET 1.363060 -1.794630 0.839290
			CHANNELS 3 Zrotation Yrotation Xrotation
			JOINT LeftLeg
			{
				OFFSET 2.448110 -6.726130 0.000000
				CHANNELS 3 Zrotation Yrotation Xrotation
				JOINT LeftFoot
				{
					OFFSET 2.562200 -7.039590 0.000000
					CHANNELS 3 Zrotation Yrotation Xrotation
					JOINT LeftToeBase
					{
						OFFSET 0.157640 -0.433110 2.322550
						CHANNELS 3 Zrotation Yrotation Xrotation
						End Site
						{
							OFFSET 0.000000 0.000000 0.000000
						}
					}
				}
			}
		}
	}
	JOINT RHipJoint
	{
		OFFSET 0.000000 0.000000 0.000000
		CHANNELS 3 Zrotation Yrotation Xrotation
		JOINT RightUpLeg
		{
			OFFSET -1.305520 -1.794630 0.839290
			CHANNELS 3 Zrotation Yrotation Xrotation
			JOINT RightLeg
			{
				OFFSET -2.542530 -6.985550 0.000000
				CHANNELS 3 Zrotation Yrotation Xrotation
				JOINT RightFoot
				{
					OFFSET -2.568260 -7.056230 0.000000
					CHANNELS 3 Zrotation Yrotation Xrotation
					JOINT RightToeBase
					{
						OFFSET -0.164730 -0.452590 2.363150
						CHANNELS 3 Zrotation Yrotation Xrotation
						End Site
						{
							OFFSET 0.000000 0.000000 0.000000
						}
					}
				}
			}
		}
	}
	JOINT LowerBack
	{
		OFFSET 0.000000 0.000000 0.000000
		CHANNELS 3 Zrotation Yrotation Xrotation
		JOINT Spine
		{
			OFFSET 0.028270 2.035590 -0.193380
			CHANNELS 3 Zrotation Yrotation Xrotation
			JOINT Spine1
			{
				OFFSET 0.056720 2.048850 -0.042750
				CHANNELS 3 Zrotation Yrotation Xrotation
				JOINT Neck
				{
					OFFSET 0.000000 0.000000 0.000000
					CHANNELS 3 Zrotation Yrotation Xrotation
					JOINT Neck1
					{
						OFFSET -0.054170 1.746240 0.172020
						CHANNELS 3 Zrotation Yrotation Xrotation
						JOINT Head
						{
							OFFSET 0.104070 1.761360 -0.123970
							CHANNELS 3 Zrotation Yrotation Xrotation
							End Site
							{
								OFFSET 0.000000 0.000000 0.000000
							}
						}
					}
				}
				JOINT LeftShoulder
				{
					OFFSET 0.000000 0.000000 0.000000
					CHANNELS 3 Zrotation Yrotation Xrotation
					JOINT LeftArm
					{
						OFFSET 3.362410 1.200890 -0.311210
						CHANNELS 3 Zrotation Yrotation Xrotation
						JOINT LeftForeArm
						{
							OFFSET 4.983000 -0.000000 -0.000000
							CHANNELS 3 Zrotation Yrotation Xrotation
							JOINT LeftHand
							{
								OFFSET 3.483560 -0.000000 -0.000000
								CHANNELS 3 Zrotation Yrotation Xrotation
								JOINT LeftFingerBase
								{
									OFFSET 0.000000 0.000000 0.000000
									CHANNELS 3 Zrotation Yrotation Xrotation
									JOINT LeftHandIndex1
									{
										OFFSET 0.715260 -0.000000 -0.000000
										CHANNELS 3 Zrotation Yrotation Xrotation
										End Site
										{
											OFFSET 0.000000 0.000000 0.000000
										}
									}
								}
								JOINT LThumb
								{
									OFFSET 0.000000 0.000000 0.000000
									CHANNELS 3 Zrotation Yrotation Xrotation
									End Site
									{
										OFFSET 0.000000 0.000000 0.000000
									}
								}
							}
						}
					}
				}
				JOINT RightShoulder
				{
					OFFSET 0.000000 0.000000 0.000000
					CHANNELS 3 Zrotation Yrotation Xrotation
					JOINT RightArm
					{
						OFFSET -3.136600 1.374050 -0.404650
						CHANNELS 3 Zrotation Yrotation Xrotation
						JOINT RightForeArm
						{
							OFFSET -5.241900 -0.000000 -0.000000
							CHANNELS 3 Zrotation Yrotation Xrotation
							JOINT RightHand
							{
								OFFSET -3.444170 -0.000000 -0.000000
								CHANNELS 3 Zrotation Yrotation Xrotation
								JOINT RightFingerBase
								{
									OFFSET 0.000000 0.000000 0.000000
									CHANNELS 3 Zrotation Yrotation Xrotation
									JOINT RightHandIndex1
									{
										OFFSET -0.622530 -0.000000 -0.000000
										CHANNELS 3 Zrotation Yrotation Xrotation
										End Site
										{
											OFFSET 0.000000 0.000000 0.000000
										}
									}
								}
								JOINT RThumb
								{
									OFFSET 0.000000 0.000000 0.000000
									CHANNELS 3 Zrotation Yrotation Xrotation
									End Site
									{
										OFFSET 0.000000 0.000000 0.000000
									}
								}
							}
						}
					}
				}
			}
		}
	}
}
MOTION
Frames: 10
Frame Time: 0.008333
10.970940 16.061560 1.551538 47.142962 -87.420657 -40.069151 -10.381770 2.220281 -0.698667 -7.788514 16.189010 -24.695178 -2.219155 1.906794 45.464109 2.937609 13.322820 -26.813692 -5.054100 0.000001 -51.691300 10.873183 -0.793227 -2.629839 1.155689 -23.748112 -23.685957 2.433565 -2.819818 46.278505 -1.195655 -0.786501 -23.825674 0.846200 0.000000 -73.843200 0.187755 -2.936488 1.610929 -0.259783 -2.876422 -1.910592 -4.641649 -2.900419 3.731234 11.111722 -21.332347 -14.256845 -0.782367 0.058058 -1.804699 0.000000 0.000000 0.000000 2.902439 20.925649 1.802492 -77.387618 18.593852 -8.776659 -3.287239 -30.021476 0.001176 7.414884 -0.100987 -0.006246 -0.175920 0.003335 -0.000000 0.000000 0.000000 0.000000 0.000000 0.000000 0.000000 10.370627 -18.334827 1.097456 73.469704 -3.633327 -17.210894 3.218738 25.232714 0.007527 -7.821206 7.567988 -0.537848 0.176520 -0.126078 -0.000000 0.000000 0.000000 0.000000 0.000000 0.000000 0.000000 
10.961334 15.991584 1.559882 49.328093 -87.378790 -41.772207 -10.379469 2.156182 -0.777797 -8.120564 16.099132 -25.942457 -2.191660 2.048707 47.158174 2.993576 13.439432 -27.457372 -5.250800 -0.000000 -51.268300 10.890558 -0.722658 -2.651110 1.192083 -23.659003 -25.046336 2.406844 -3.014879 48.081864 -1.209486 -0.682753 -24.518988 0.852700 0.000000 -73.839800 0.159271 -2.950212 1.743278 -0.268386 -2.882900 -1.868431 -4.666617 -2.903843 3.822775 11.239939 -21.405807 -14.430847 -0.778273 0.062007 -1.859012 0.000000 0.000000 0.000000 2.775436 21.273193 1.860856 -78.169783 18.766084 -9.123427 -3.297388 -29.569573 0.001268 7.164309 -0.016281 -0.000473 -0.173694 0.000223 -0.000000 0.000000 0.000000 0.000000 0.000000 0.000000 0.000000 10.582970 -18.443132 1.128520 74.112663 -3.818446 -17.566312 3.235519 24.755413 0.007639 -7.686806 7.485916 -0.522965 0.175521 -0.124294 -0.000000 0.000000 0.000000 0.000000 0.000000 0.000000 0.000000 
10.951912 15.913908 1.567853 51.406854 -87.330781 -43.352005 -10.378392 2.092406 -0.855528 -8.460823 15.999160 -27.277505 -2.154900 2.205487 48.986659 3.049448 13.549729 -28.124957 -5.452400 -0.000000 -50.926200 10.911027 -0.649139 -2.668573 1.232143 -23.558851 -26.487987 2.367358 -3.224800 50.018095 -1.222255 -0.567980 -25.236863 0.854500 0.000000 -73.849600 0.125438 -2.966424 1.867433 -0.278126 -2.891863 -1.827137 -4.693025 -2.909653 3.915402 11.375695 -21.477808 -14.605695 -0.774697 0.065947 -1.913802 0.000000 0.000000 0.000000 2.628491 21.636061 1.918360 -78.927269 18.934166 -9.409336 -3.304270 -29.148811 0.001381 6.907381 0.055800 0.004203 -0.171320 -0.002910 -0.000000 0.000000 0.000000 0.000000 0.000000 0.000000 0.000000 10.810083 -18.550369 1.159763 74.752571 -4.006883 -17.886720 3.250561 24.281730 0.007677 -7.547345 7.371542 -0.505682 0.174475 -0.122306 -0.000000 0.000000 0.000000 0.000000 0.000000 0.000000 0.000000 
10.941682 15.828453 1.575061 53.452623 -87.271320 -44.873912 -10.376297 2.032123 -0.925851 -8.822010 15.890141 -28.707215 -2.107919 2.375447 50.936360 3.104963 13.652786 -28.805210 -5.655700 -0.000001 -50.703000 10.936196 -0.573256 -2.674898 1.272808 -23.448551 -28.019194 2.313496 -3.447951 52.075312 -1.233331 -0.439712 -25.970559 0.849800 -0.000000 -73.878700 0.076790 -2.984742 1.966250 -0.290818 -2.903129 -1.789220 -4.720724 -2.917767 4.011876 11.520708 -21.552807 -14.779983 -0.771631 0.069825 -1.968332 0.000000 0.000000 0.000000 2.469978 22.023662 1.973196 -79.650016 19.094228 -9.617874 -3.309040 -28.745678 0.001539 6.656074 0.106659 0.007280 -0.168926 -0.006060 -0.000000 0.000000 0.000000 0.000000 0.000000 0.000000 0.000000 11.056836 -18.661772 1.188883 75.383007 -4.206745 -18.158981 3.263846 23.820439 0.007632 -7.413228 7.221931 -0.486699 0.173480 -0.120050 -0.000000 0.000000 0.000000 0.000000 0.000000 0.000000 0.000000 
10.931476 15.735452 1.582007 55.230619 -87.212489 -46.120987 -10.376766 1.972014 -0.997377 -9.175465 15.788500 -30.202538 -2.049361 2.559487 52.995833 3.157477 13.741661 -29.490184 -5.855400 -0.000000 -50.620000 10.964071 -0.496149 -2.679551 1.320432 -23.333760 -29.596957 2.244380 -3.681924 54.223636 -1.241908 -0.300334 -26.702260 0.837900 0.000001 -73.946801 0.033742 -3.007127 2.061528 -0.302415 -2.918736 -1.751616 -4.750185 -2.930110 4.107840 11.668651 -21.622655 -14.951257 -0.770062 0.073524 -2.022191 0.000000 0.000000 0.000000 2.277165 22.423386 2.025498 -80.337195 19.254297 -9.770437 -3.309125 -28.385971 0.001732 6.413009 0.139619 0.009158 -0.166390 -0.009206 -0.000000 0.000000 0.000000 0.000000 0.000000 0.000000 0.000000 11.314433 -18.769224 1.217185 76.005587 -4.403156 -18.408943 3.275566 23.353280 0.007553 -7.280135 7.061499 -0.467516 0.172455 -0.117714 -0.000000 0.000000 0.000000 0.000000 0.000000 0.000000 0.000000 
10.920395 15.635129 1.588349 56.825993 -87.149262 -47.173215 -10.377559 1.914748 -1.064485 -9.534128 15.695812 -31.766140 -1.978631 2.755198 55.146400 3.207108 13.816702 -30.171003 -6.049100 0.000000 -50.688600 10.995682 -0.418395 -2.676058 1.371853 -23.217939 -31.225809 2.159251 -3.924599 56.447336 -1.247823 -0.149064 -27.426461 0.817900 -0.000000 -74.056000 -0.012932 -3.032656 2.137558 -0.314761 -2.937919 -1.716627 -4.781381 -2.946007 4.205918 11.820993 -21.692836 -15.118011 -0.770055 0.076981 -2.074590 0.000000 0.000000 0.000000 2.060383 22.841750 2.073536 -80.982960 19.408790 -9.862690 -3.305797 -28.050678 0.001969 6.190750 0.150291 0.009538 -0.163848 -0.012335 -0.000000 0.000000 0.000000 0.000000 0.000000 0.000000 0.000000 11.587756 -18.878796 1.242413 76.615077 -4.603992 -18.631718 3.285892 22.889594 0.007448 -7.153703 6.892965 -0.448532 0.171468 -0.115284 -0.000000 0.000000 0.000000 0.000000 0.000000 0.000000 0.000000 
10.908708 15.527893 1.594250 58.146581 -87.086281 -47.950079 -10.379973 1.858970 -1.131228 -9.885598 15.622276 -33.375665 -1.895197 2.961780 57.370677 3.252744 13.875279 -30.843539 -6.234199 -0.000000 -50.902299 11.029921 -0.340568 -2.669314 1.428070 -23.108591 -32.877679 2.058246 -4.173625 58.721472 -1.250950 0.012091 -28.135583 0.789700 0.000000 -74.215600 -0.054990 -3.061989 2.204766 -0.326284 -2.961304 -1.682732 -4.814593 -2.966021 4.304292 11.974512 -21.761195 -15.278464 -0.772159 0.080115 -2.125097 0.000000 0.000000 0.000000 1.811636 23.270954 2.117038 -81.588061 19.557412 -9.915397 -3.298017 -27.741738 0.002240 5.996116 0.143397 0.009019 -0.161282 -0.015425 -0.000000 0.000000 0.000000 0.000000 0.000000 0.000000 0.000000 11.873076 -18.988670 1.264765 77.211356 -4.801413 -18.848507 3.294987 22.419793 0.007365 -7.030384 6.737380 -0.430850 0.170470 -0.112907 -0.000000 0.000000 0.000000 0.000000 0.000000 0.000000 0.000000 
10.895135 15.414155 1.599354 59.288875 -87.017438 -48.536310 -10.381182 1.807972 -1.188689 -10.247276 15.563260 -35.041258 -1.798876 3.176298 59.651165 3.295766 13.920377 -31.505551 -6.411100 0.000000 -51.242599 11.067322 -0.263543 -2.650117 1.489459 -23.007265 -34.567504 1.941202 -4.427037 61.035071 -1.252381 0.180335 -28.831880 0.754600 0.000001 -74.412000 -0.103264 -3.092656 2.240281 -0.339137 -2.986811 -1.653430 -4.849529 -2.988240 4.406671 12.131331 -21.835209 -15.431867 -0.776278 0.082883 -2.173015 0.000000 0.000000 0.000000 1.550205 23.717882 2.154780 -82.150374 19.689926 -9.929845 -3.288126 -27.423282 0.002555 5.841421 0.116360 0.007602 -0.158877 -0.018459 -0.000000 0.000000 0.000000 0.000000 0.000000 0.000000 0.000000 12.176597 -19.106251 1.281784 77.788517 -5.012693 -19.048130 3.302885 21.969092 0.007280 -6.917672 6.585220 -0.414467 0.169567 -0.110512 -0.000000 0.000000 0.000000 0.000000 0.000000 0.000000 0.000000 
10.880029 15.294500 1.603780 60.174126 -86.945866 -48.864457 -10.382079 1.760239 -1.239591 -10.609419 15.521198 -36.742588 -1.689389 3.397689 61.971816 3.336162 13.952834 -32.158466 -6.580100 0.000000 -51.679500 11.106583 -0.187492 -2.623237 1.557874 -22.920439 -36.272008 1.808798 -4.682968 63.368306 -1.252902 0.350803 -29.514525 0.714100 0.000000 -74.643900 -0.150933 -3.124728 2.253143 -0.351925 -3.014485 -1.627331 -4.885820 -3.012682 4.512078 12.288459 -21.913856 -15.577848 -0.782291 0.085297 -2.218325 0.000000 0.000000 0.000000 1.275202 24.175936 2.187306 -82.674317 19.798509 -9.928975 -3.275711 -27.082050 0.002898 5.733458 0.075512 0.005486 -0.156641 -0.021401 -0.000000 0.000000 0.000000 0.000000 0.000000 0.000000 0.000000 12.492839 -19.230832 1.293895 78.348913 -5.228952 -19.258447 3.309975 21.525320 0.007244 -6.807745 6.456528 -0.399982 0.168683 -0.108255 -0.000000 0.000000 0.000000 0.000000 0.000000 0.000000 0.000000 
10.863590 15.169650 1.607714 60.737542 -86.874594 -48.878344 -10.383625 1.714501 -1.286227 -10.963138 15.496960 -38.459644 -1.566845 3.624742 64.317034 3.373955 13.972683 -32.805384 -6.741700 0.000001 -52.182800 11.146359 -0.112820 -2.593368 1.634546 -22.854482 -37.969369 1.662176 -4.939795 65.704128 -1.253430 0.518946 -30.185493 0.670400 -0.000000 -74.908300 -0.191682 -3.158015 2.251923 -0.363486 -3.044106 -1.603484 -4.923462 -3.039121 4.618013 12.443269 -21.994747 -15.715248 -0.790757 0.087286 -2.260775 0.000000 0.000000 0.000000 0.985662 24.630827 2.215368 -83.167211 19.881811 -9.945290 -3.260349 -26.710223 0.003253 5.674541 0.028484 0.003170 -0.154559 -0.024223 -0.000000 0.000000 0.000000 0.000000 0.000000 0.000000 0.000000 12.818510 -19.359591 1.302174 78.892494 -5.450762 -19.487365 3.315885 21.092706 0.007252 -6.701217 6.353258 -0.387497 0.167804 -0.106180 -0.000000 0.000000 0.000000 0.000000 0.000000 0.000000 0.000000 
